<svg width="500" height="500" viewBox="0 0 500 500" fill="none" xmlns="http://www.w3.org/2000/svg">
<rect width="500" height="500" fill="#F0F0F0"/>
<mask id="mask0_7771_227" style="mask-type:luminance" maskUnits="userSpaceOnUse" x="9" y="13" width="483" height="473">
<path d="M492 13H9V486H492V13Z" fill="white"/>
</mask>
<g mask="url(#mask0_7771_227)">
<path d="M117.554 248.622C113.284 248.671 109.042 247.928 105.054 246.432C101.322 245.026 98.0752 242.61 95.6938 239.464C93.2907 236.302 91.9655 232.183 91.718 227.109H106.494C106.428 228.768 106.939 230.4 107.943 231.738C108.965 232.999 110.341 233.939 111.901 234.445C113.685 235.044 115.561 235.34 117.447 235.321C118.978 235.328 120.505 235.189 122.008 234.905C123.261 234.705 124.443 234.202 125.448 233.442C125.88 233.093 126.223 232.65 126.451 232.148C126.678 231.646 126.783 231.1 126.758 230.551C126.758 229.053 126.311 227.923 125.38 227.205C124.45 226.487 122.795 225.633 120.394 224.687L106.74 218.84C102.25 216.942 98.7558 214.712 96.2573 212.148C93.7588 209.584 92.5111 206.081 92.5141 201.637C92.5141 196.443 94.6742 192.248 98.9943 189.054C103.314 185.86 109.243 184.272 116.78 184.289C124.425 184.289 130.291 186.053 134.379 189.58C138.466 193.107 140.759 198.142 141.257 204.685H126.539C126.205 202.746 125.246 200.962 123.802 199.596C122.353 198.221 120.005 197.533 116.758 197.533C114.419 197.533 112.527 197.971 111.096 198.795C109.665 199.618 108.941 200.682 108.941 201.935C108.922 202.469 109.038 203 109.28 203.48C109.521 203.959 109.879 204.373 110.322 204.685C111.619 205.557 113.008 206.291 114.464 206.875L128.927 212.879C133.73 214.923 137.308 217.322 139.66 220.075C142.023 222.849 143.278 226.367 143.193 229.978C143.193 234.103 142.187 237.548 140.175 240.313C138.162 243.078 135.245 245.156 131.422 246.546C127.597 247.935 122.976 248.63 117.559 248.63" fill="#432563"/>
<path d="M143.108 247.172L164.262 185.664H183.313L203.3 247.172H187.526L184.109 236.358H162.437L159.02 247.176L143.108 247.172ZM166.23 225.492H180.693L173.577 202.985L166.23 225.492Z" fill="#432563"/>
<path d="M209.145 247.172V185.66H236.341C241.427 185.66 245.64 186.39 248.979 187.85C252.318 189.31 254.821 191.281 256.488 193.762C258.161 196.268 259.035 199.204 258.997 202.198C258.997 205.587 258.007 208.459 256.027 210.812C253.976 213.21 251.274 214.99 248.232 215.945C250.324 216.471 252.316 217.323 254.131 218.468C255.906 219.595 257.375 221.128 258.411 222.935C259.49 224.783 260.028 227.068 260.025 229.789C260.001 231.741 259.654 233.675 258.997 235.518C258.241 237.644 257.008 239.578 255.388 241.176C253.676 242.928 251.291 244.365 248.232 245.486C245.173 246.607 241.273 247.165 236.533 247.159L209.145 247.172ZM224.114 198.357V210.081H235.674C238.545 210.081 240.589 209.545 241.806 208.474C242.405 207.953 242.879 207.309 243.195 206.589C243.511 205.868 243.661 205.088 243.635 204.304C243.65 203.518 243.499 202.738 243.191 202.012C242.883 201.286 242.425 200.631 241.846 200.087C240.653 198.919 238.633 198.335 235.786 198.335L224.114 198.357ZM224.114 234.34H236.05C238.578 234.34 240.497 233.874 241.806 232.943C243.115 232.011 243.77 230.659 243.773 228.887C243.806 228.086 243.657 227.288 243.337 226.551C243.016 225.813 242.533 225.154 241.922 224.621C240.694 223.553 238.736 223.018 236.05 223.018H224.114V234.34Z" fill="#432563"/>
<path d="M260.584 247.172L281.738 185.664H300.79L320.776 247.172H305.003L301.586 236.358H279.913L276.497 247.176L260.584 247.172ZM283.706 225.492H298.169L291.054 202.985L283.706 225.492Z" fill="#432563"/>
<path d="M326.626 185.664H341.603V209.91H365.333V185.664H380.449V247.176H365.333V222.838H341.603V247.176H326.626V185.664Z" fill="#432563"/>
<path d="M408.749 237.428C408.323 238.495 407.688 239.471 406.88 240.301C406.026 241.426 405.047 242.454 403.959 243.366C402.727 244.42 401.353 245.304 399.876 245.994C398.287 246.735 396.556 247.139 394.796 247.181C394.523 247.181 394.246 247.181 393.977 247.181C393.709 247.181 393.427 247.142 393.155 247.106L392.877 247.076C392.013 246.977 391.18 246.696 390.436 246.252C389.693 245.809 389.056 245.212 388.571 244.505C387.496 242.995 386.899 241.208 386.853 239.368C386.779 236.463 387.847 233.641 389.836 231.484C390.912 230.296 392.198 229.308 393.633 228.568C395.025 227.829 396.572 227.416 398.154 227.359C398.905 227.329 399.657 227.393 400.391 227.551C401.705 227.827 401.925 228.646 401.938 229.102C401.95 229.337 401.904 229.571 401.804 229.785L402.627 229.662C402.808 229.615 402.994 229.586 403.181 229.575H403.629C405.337 229.522 406.714 229.991 407.721 230.989C408.692 231.955 409.245 233.251 409.264 234.607C409.276 235.572 409.096 236.531 408.731 237.428" fill="#FFB71B"/>
<path d="M171.122 297.834C168.885 301.113 166.13 304.024 162.961 306.457C159.952 308.654 156.675 310.475 153.207 311.879C151.248 312.707 149.566 313.351 148.234 313.793C146.895 314.247 145.507 314.541 144.097 314.669C143.473 314.714 142.848 314.724 142.223 314.7C141.955 314.7 141.682 314.669 141.404 314.647C140.984 314.617 140.568 314.577 140.13 314.52C138.627 314.31 137.692 313.206 137.545 311.577C137.47 310.625 137.778 309.682 138.404 308.949C138.896 308.336 139.839 307.635 141.534 307.754C141.941 307.754 142.952 307.609 145.036 306.935C146.798 306.361 148.766 305.621 150.886 304.745C153.536 303.597 156.053 302.174 158.394 300.501C160.16 299.196 161.674 297.595 162.867 295.771C164.007 294.094 164.512 292.57 164.396 291.225C164.342 290.635 164.168 290.062 163.886 289.539C163.52 288.928 163.009 288.413 162.397 288.037C160.956 286.992 159.398 286.111 157.755 285.409C155.885 284.603 154.007 283.723 152.174 282.781C150.371 281.888 148.724 280.723 147.29 279.33C145.816 277.841 144.939 275.882 144.821 273.812C144.728 272.831 144.836 271.842 145.138 270.903C145.44 269.964 145.929 269.093 146.579 268.341C147.833 266.857 149.327 265.583 151.002 264.571C152.377 263.709 153.824 262.962 155.326 262.337C156.515 261.859 157.738 261.469 158.985 261.168C160.211 260.881 161.458 260.685 162.715 260.581C164.181 260.455 165.659 260.512 167.111 260.752C168.606 261.018 170.043 261.533 171.359 262.276C172.168 262.691 172.851 263.309 173.336 264.067C173.765 264.727 174.026 265.478 174.096 266.257C174.19 267.268 173.935 268.281 173.372 269.134C173.081 269.591 172.682 269.972 172.209 270.246C171.735 270.52 171.202 270.678 170.653 270.706C169.839 270.776 168.864 270.518 167.643 269.918L166.024 269.108C164.887 268.744 163.686 268.613 162.495 268.722C161.509 268.794 160.539 269.006 159.615 269.353C158.113 269.833 156.649 270.418 155.233 271.105C154.101 271.661 153.444 272.379 153.26 273.295C153.193 273.733 153.739 274.438 154.812 275.169C156.479 276.292 158.252 277.256 160.107 278.047C162.343 279.028 164.396 280 166.266 280.933C168.171 281.795 169.831 283.102 171.1 284.739C172.376 286.352 173.152 288.29 173.336 290.323C173.551 292.828 172.808 295.333 171.14 297.768" fill="#FFB71B"/>
<path d="M217.616 295.535C214.583 298.943 211.189 302.026 207.491 304.732C203.99 307.241 199.844 308.741 195.518 309.063C194.606 309.131 193.689 309.131 192.777 309.063C190.929 308.955 189.134 308.422 187.535 307.509C185.441 306.3 183.711 304.57 182.522 302.494C181.368 300.489 180.665 298.265 180.46 295.973C180.259 293.366 180.652 290.748 181.61 288.308C182.573 285.83 183.812 283.462 185.304 281.248C186.784 279.059 188.273 277.053 189.718 275.296C193.381 270.891 196.95 267.536 200.331 265.306C203.823 263.007 206.65 261.803 208.948 261.601C211.247 261.4 213.032 261.663 214.315 262.333C215.522 262.92 216.516 263.856 217.164 265.013C217.663 265.916 218.02 266.888 218.224 267.895C218.545 269.215 218.408 270.601 217.835 271.837C217.581 272.4 217.177 272.886 216.664 273.243C216.152 273.6 215.55 273.815 214.923 273.864C213.711 273.913 212.523 273.515 211.596 272.747C210.866 272.196 210.192 271.577 209.584 270.899C208.014 271.399 206.623 271.88 205.42 272.331C204.11 272.824 202.87 273.479 201.73 274.28C200.268 275.36 198.899 276.557 197.638 277.859C194.986 280.603 192.637 283.614 190.63 286.841C188.881 289.61 188.077 292.853 188.336 296.1C188.68 300.195 190.778 301.863 195.116 301.517C198.408 301.179 201.578 300.113 204.387 298.399C207.486 296.6 210.23 294.269 212.486 291.519C212.812 291.115 213.217 290.779 213.678 290.532C214.139 290.285 214.646 290.132 215.169 290.082C215.999 289.993 216.832 290.224 217.49 290.726C217.829 290.98 218.109 291.302 218.309 291.671C218.51 292.039 218.627 292.446 218.653 292.863C218.687 293.356 218.611 293.851 218.429 294.313C218.247 294.774 217.965 295.191 217.602 295.535" fill="#FFB71B"/>
<path d="M263.433 274.87C263.004 277.494 262.315 280.071 261.376 282.565C260.533 285.188 259.856 287.86 259.35 290.566C258.93 292.657 258.631 294.77 258.456 296.895C259.259 298.003 259.743 299.302 259.856 300.657C260.012 302.505 259.109 303.683 257.436 303.819C257.115 303.839 256.792 303.839 256.47 303.819C255.698 303.77 254.951 303.529 254.3 303.119C253.649 302.709 253.115 302.144 252.749 301.476C251.832 299.845 251.295 298.035 251.175 296.176C250.987 293.523 251.155 290.856 251.676 288.245C252.078 285.91 252.652 283.606 253.393 281.351C254.207 278.912 254.847 276.735 255.29 274.9C255.653 273.556 255.817 272.168 255.777 270.779C255.728 270.039 255.553 269.864 255.553 269.864L255.428 269.894C255.384 269.894 254.838 269.938 252.866 271.015C251.192 271.957 249.612 273.048 248.143 274.274C247.079 275.106 245.688 276.293 243.993 277.826C242.298 279.359 240.464 281.089 238.604 282.924C236.888 284.592 235.261 286.346 233.729 288.179C231.918 290.369 230.719 292.34 230.174 294.079C229.695 295.616 228.604 296.536 227.119 296.658C226.607 296.695 226.094 296.607 225.625 296.401C225.157 296.196 224.748 295.879 224.436 295.48C223.756 294.679 223.438 293.505 223.488 291.889C223.756 288.781 224.24 285.695 224.937 282.652C225.715 279.083 226.681 275.15 227.799 270.967C228.917 266.785 230.124 262.567 231.417 258.398C232.709 254.228 234.029 250.265 235.335 246.617C236.64 242.968 237.852 239.894 238.912 237.446C239.847 235.431 241.372 234.905 242.49 234.818C243.436 234.738 244.377 235.024 245.111 235.615C245.524 235.947 245.861 236.361 246.099 236.83C246.337 237.299 246.471 237.811 246.493 238.335C246.504 239.032 246.459 239.729 246.359 240.419C246.239 241.48 246.057 242.533 245.813 243.573C245.589 244.58 245.228 245.554 244.74 246.468C244.018 247.834 243.204 249.15 242.302 250.409C241.359 251.774 240.585 253.244 239.999 254.789C238.55 258.682 237.365 262.046 236.484 264.783C235.603 267.521 234.923 269.907 234.476 271.948C234.029 273.989 233.644 275.89 233.34 277.642C233.34 277.738 233.304 277.843 233.282 277.953C233.287 277.94 233.296 277.929 233.309 277.922C234.884 276.128 236.587 274.446 238.407 272.89C240.37 271.182 242.463 269.504 244.641 267.919C246.651 266.444 248.776 265.127 250.996 263.977C253.129 262.9 254.86 262.313 256.278 262.195C257.95 262.064 259.617 262.495 261.005 263.417C262.579 264.428 263.487 266.408 263.738 269.294C263.844 271.169 263.747 273.05 263.447 274.905" fill="#FFB71B"/>
<path d="M305.432 273.915C305.275 271.511 304.166 269.261 302.342 267.644C300.491 265.984 298.04 265.279 295.048 265.519L294.27 265.581C293.944 265.612 293.623 265.678 293.313 265.778L291.882 266.063C292.031 265.679 292.09 265.267 292.051 264.858C291.98 264.061 291.528 262.646 289.207 262.274C287.919 262.059 286.609 262.008 285.307 262.121C282.54 262.357 279.865 263.214 277.49 264.626C275.04 266.051 272.875 267.9 271.099 270.083C267.817 274.027 266.206 279.055 266.6 284.129C266.837 287.349 268.042 290.428 270.062 292.98C270.974 294.178 272.141 295.168 273.482 295.882C274.823 296.596 276.307 297.016 277.83 297.114C277.982 297.114 278.147 297.14 278.313 297.14C278.8 297.175 279.274 297.202 279.762 297.206C280.249 297.21 280.714 297.18 281.197 297.14C284.273 296.916 287.267 296.062 289.985 294.635C292.512 293.293 294.841 291.621 296.908 289.664C298.719 287.986 300.337 286.12 301.734 284.098C303.076 282.578 304.1 280.815 304.748 278.908C305.305 277.306 305.538 275.613 305.432 273.924M297.011 277.528C296.744 278.616 296.326 279.662 295.768 280.638C294.39 282.771 292.302 284.829 289.565 286.769C287.044 288.62 284.048 289.75 280.911 290.032L279.963 290.111C279.678 290.134 279.392 290.127 279.109 290.089H279.002H278.899C277.861 290.172 276.886 289.625 275.907 288.399C274.776 286.922 274.121 285.149 274.024 283.305C273.918 281.931 274.05 280.55 274.413 279.219C274.905 277.373 275.789 275.649 277.007 274.16C278.247 272.61 279.747 271.277 281.443 270.219C282.222 269.728 283.057 269.329 283.93 269.028C283.605 269.38 283.362 269.798 283.218 270.252C283.073 270.705 283.031 271.184 283.094 271.655C283.181 272.589 283.602 273.462 284.283 274.121C284.635 274.496 285.071 274.786 285.557 274.969C286.043 275.151 286.565 275.221 287.083 275.172C287.548 275.118 288.001 274.991 288.424 274.796L288.527 274.739C289.339 274.315 290.203 273.997 291.099 273.793C292.186 273.517 293.335 273.263 294.453 273.022C295.089 272.967 295.728 273.1 296.287 273.403C296.501 273.495 297.118 273.788 297.253 275.352C297.285 276.088 297.211 276.825 297.034 277.542" fill="#FFB71B"/>
<path d="M347.909 270.469C347.754 268.065 346.653 265.813 344.837 264.189C342.981 262.538 340.53 261.832 337.538 262.073L336.746 262.135C336.42 262.162 336.099 262.228 335.789 262.332L334.372 262.616C334.511 262.23 334.566 261.82 334.533 261.412C334.475 260.606 334.009 259.2 331.697 258.832C330.41 258.615 329.099 258.559 327.798 258.666C325.031 258.912 322.357 259.772 319.98 261.18C317.528 262.593 315.361 264.435 313.589 266.615C311.842 268.718 310.548 271.147 309.788 273.754C309.158 276.008 308.92 278.351 309.086 280.682C309.33 283.903 310.537 286.981 312.556 289.534C313.467 290.734 314.633 291.726 315.975 292.44C317.316 293.154 318.801 293.573 320.324 293.668C320.477 293.668 320.642 293.694 320.799 293.694C321.282 293.734 321.756 293.756 322.243 293.76C322.731 293.764 323.2 293.734 323.679 293.694C326.758 293.472 329.754 292.615 332.471 291.18C335.002 289.844 337.334 288.174 339.403 286.218C341.212 284.534 342.831 282.665 344.233 280.643C345.582 279.128 346.61 277.365 347.256 275.457C347.805 273.852 348.032 272.159 347.927 270.469M325.588 268.205C325.68 269.135 326.103 270.005 326.782 270.662C327.134 271.041 327.571 271.334 328.058 271.518C328.546 271.702 329.071 271.772 329.591 271.722C330.057 271.666 330.511 271.534 330.933 271.332L331.027 271.288C331.837 270.866 332.7 270.548 333.594 270.342C334.694 270.065 335.812 269.809 336.948 269.576C337.587 269.513 338.23 269.639 338.795 269.939C338.996 270.044 339.627 270.342 339.761 271.901C339.784 272.637 339.71 273.373 339.542 274.091C339.272 275.179 338.85 276.225 338.289 277.201C336.912 279.325 334.819 281.392 332.082 283.332C329.552 285.186 326.545 286.313 323.397 286.586L322.458 286.665C322.174 286.693 321.888 286.693 321.604 286.665H321.496H321.384C320.347 286.752 319.372 286.201 318.392 284.974C317.272 283.492 316.618 281.722 316.51 279.881C316.406 278.507 316.537 277.126 316.899 275.795C317.385 273.947 318.27 272.222 319.493 270.736C320.729 269.184 322.228 267.85 323.925 266.795C324.709 266.307 325.544 265.903 326.416 265.59C326.097 265.947 325.858 266.365 325.714 266.818C325.569 267.27 325.522 267.747 325.575 268.218" fill="#FFB71B"/>
<path d="M379.497 229.64C379.377 230.7 379.19 231.751 378.938 232.789C378.733 233.75 378.425 234.688 378.021 235.587C377.293 236.978 376.465 238.315 375.543 239.59C374.604 240.956 373.834 242.426 373.249 243.97C371.795 247.876 370.337 252.046 368.911 256.347C367.484 260.647 366.187 264.926 365.056 269.008C363.924 273.09 363.012 276.813 362.372 280.076C361.814 282.564 361.492 285.097 361.411 287.643C361.518 287.968 361.709 288.259 361.965 288.489L363.567 290.118C364.231 290.742 364.648 291.577 364.743 292.474C364.837 293.425 364.367 294.314 363.401 295.128C362.725 295.652 361.892 295.944 361.031 295.96C360.733 295.981 360.434 295.981 360.136 295.96C358.897 295.842 357.712 295.404 356.702 294.69C355.15 293.674 354.358 291.922 354.327 289.496C354.478 286.832 354.809 284.181 355.32 281.56C355.906 278.315 356.742 274.64 357.797 270.637C358.853 266.634 360.033 262.469 361.268 258.265C362.502 254.061 363.817 249.812 365.123 245.796C366.429 241.78 367.703 238.044 368.929 234.751C370.154 231.457 371.223 228.724 372.095 226.67C373.039 224.647 374.568 224.121 375.673 224.043C376.175 224.004 376.679 224.065 377.156 224.224C377.632 224.383 378.071 224.635 378.444 224.966C378.818 225.296 379.118 225.698 379.328 226.146C379.537 226.594 379.651 227.08 379.662 227.573C379.692 228.27 379.652 228.968 379.541 229.657" fill="#FFB71B"/>
</g>
</svg>
